# xmcd
#
# Track frame offsets:
#  150
#  15363
#  38740
#  53117
#  72064
#  93686
#  110097
#  127623
#  143533
#  162118
#  184520
#
# Disc length: 2680 seconds
#
# Revision: 0
# Processed by: cddbd v1.5.1PL2 Copyright (c) Steve Scherf et al.
# Submitted via: Collectorz.com_Music_Collector 6.9
#
DISCID=810a760b
DTITLE=Guy Clark - Riley Smith Hall - Disc 1
DYEAR=1998
DGENRE=
TTITLE0=The Cape
TTITLE1=La Freeway
TTITLE2=Homegrown Tomatoes
TTITLE3=Instant Coffee Blues
TTITLE4=She Ain't Going Nowhere
TTITLE5=Texas 1947
TTITLE6=Stuff That Works
TTITLE7=Rita Ballou
TTITLE8=Boats To Build
TTITLE9=Randall Knife
TTITLE10=Immigrant Eyes
EXTD=
EXTT0=
EXTT1=
EXTT2=
EXTT3=
EXTT4=
EXTT5=
EXTT6=
EXTT7=
EXTT8=
EXTT9=
EXTT10=
PLAYORDER=
